<mxfile host="app.diagrams.net" modified="2024-01-28T08:24:13.258Z" agent="Mozilla/5.0 (Windows NT 10.0; Win64; x64) AppleWebKit/537.36 (KHTML, like Gecko) Chrome/119.0.0.0 Safari/537.36 Edg/119.0.0.0" version="23.0.2" etag="GYbZ-gXVPeMuTc-Th4hG" type="github">
  <diagram name="Page-1" id="P5VF2UNsHva16Qushf5_">
    <mxGraphModel>
      <root>
        <mxCell id="0" />
        <mxCell id="1" parent="0" />
      </root>
    </mxGraphModel>
  </diagram>
</mxfile>
